<svg width="22" height="17" viewBox="0 0 22 17" fill="none" xmlns="http://www.w3.org/2000/svg">
<path fill-rule="evenodd" clip-rule="evenodd" d="M13.0825 1.12928C12.747 0.0107834 11.1297 0.11685 10.9431 1.26955L9.45993 10.4301L8.69712 6.67566C8.498 5.69564 7.20035 5.46825 6.67987 6.32217L1.09822 15.4796C0.81078 15.9511 0.960058 16.5665 1.43165 16.8539C1.90323 17.1413 2.51855 16.9921 2.80599 16.5205L7.19385 9.32165L8.48206 15.662C8.72563 16.8609 10.4504 16.8263 10.6459 15.6188L12.2917 5.45343L15.4552 15.9984C15.7595 17.0127 17.1807 17.0535 17.5426 16.0583L21.4395 5.34176C21.6283 4.82273 21.3605 4.24896 20.8415 4.06022C20.3224 3.87148 19.7487 4.13924 19.5599 4.65827L16.5908 12.8234L13.0825 1.12928Z" fill="white"/>
</svg>
