<svg width="23" height="22" viewBox="0 0 23 22" fill="none" xmlns="http://www.w3.org/2000/svg">
    <path d="M6.87101 7.91423C7.72355 7.91423 8.41423 7.22355 8.41423 6.37101C8.41423 5.5192 7.72355 4.82852 6.87101 4.82852C6.0192 4.82852 5.32852 5.5192 5.32852 6.37101C5.32852 7.22355 6.0192 7.91423 6.87101 7.91423Z" fill="white" fill-opacity="0.9" />
    <path d="M17.6713 15.629C17.6713 16.4808 16.9806 17.1715 16.1288 17.1715C15.2762 17.1715 14.5856 16.4808 14.5856 15.629C14.5856 14.7765 15.2762 14.0858 16.1288 14.0858C16.9806 14.0858 17.6713 14.7765 17.6713 15.629Z" fill="white" fill-opacity="0.9" />
    <path d="M11.4998 12.5432C12.3516 12.5432 13.043 11.8518 13.043 11C13.043 10.1482 12.3516 9.45679 11.4998 9.45679C10.648 9.45679 9.9566 10.1482 9.9566 11C9.9566 11.8518 10.648 12.5432 11.4998 12.5432Z" fill="white" fill-opacity="0.9" />
    <path fill-rule="evenodd" clip-rule="evenodd" d="M6.87108 0.199707H16.1289C19.5369 0.199707 22.3003 2.96308 22.3003 6.37108V15.6289C22.3003 19.0369 19.5369 21.8003 16.1281 21.8003H6.87108C3.46308 21.8003 0.699707 19.0369 0.699707 15.6281V6.37108C0.699707 2.96308 3.46308 0.199707 6.87108 0.199707ZM20.7579 6.37193C20.7579 3.8193 18.6814 1.74293 16.1289 1.74293L6.87183 1.74219C4.31921 1.74219 2.24283 3.81876 2.24283 6.37119L2.2421 15.6283C2.2421 18.1809 4.31866 20.2573 6.8711 20.2573L16.1289 20.258C18.6815 20.258 20.7579 18.1814 20.7579 15.629V6.37193Z" fill="white" fill-opacity="0.9" />
</svg>