<svg width="8" height="14" viewBox="0 0 8 14" fill="none" xmlns="http://www.w3.org/2000/svg">
    <path d="M0.770373 6.49113C0.648646 6.63396 0.581787 6.81547 0.581787 7.00313C0.581787 7.19079 0.648646 7.37231 0.770373 7.51513L6.10383 13.2538C6.23962 13.4009 6.42829 13.488 6.62834 13.496C6.82838 13.504 7.02341 13.4323 7.17052 13.2965C7.31763 13.1607 7.40477 12.972 7.41277 12.772C7.42077 12.5719 7.34898 12.3769 7.21319 12.2298L2.34908 7.00313L7.21319 1.77647C7.33784 1.63514 7.40617 1.45291 7.40519 1.26447C7.4011 1.0563 7.31707 0.857695 7.17052 0.709802C7.02189 0.577212 6.82757 0.507546 6.62855 0.515507C6.42953 0.523467 6.24139 0.60843 6.10383 0.752467L0.770373 6.49113Z" fill="white" fill-opacity="0.9" />
</svg>