<svg width="12" height="16" viewBox="0 0 12 16" fill="none" xmlns="http://www.w3.org/2000/svg">
    <path d="M2.08893 6.26068V3.50732C2.08893 1.57035 3.80156 0 5.91521 0C8.0282 0 9.74149 1.5717 9.74149 3.50732V6.26068H10.5176C11.2415 6.26068 11.8284 6.8848 11.8284 7.65107V14.6096C11.8284 15.3772 11.2415 16 10.5176 16H1.31282C0.588918 16 0.00195312 15.3759 0.00195312 14.6096V7.65107C0.00195312 6.88348 0.588901 6.26068 1.31282 6.26068H2.08893ZM1.39371 7.65237V14.6082H10.4367V7.65237H1.39371ZM8.34974 6.26068V3.50732C8.34974 2.36801 7.28475 1.39171 5.91519 1.39171C4.54434 1.39171 3.48065 2.36667 3.48065 3.50732V6.26068H8.34974ZM5.21932 10.2845C5.21932 9.90043 5.52846 9.58935 5.91519 9.58935C6.29932 9.58935 6.61106 9.89782 6.61106 10.2845V12.3721C6.61106 12.7562 6.30193 13.0673 5.91519 13.0673C5.53106 13.0673 5.21932 12.7588 5.21932 12.3721V10.2845Z" fill="white" fill-opacity="0.4" />
</svg>