<svg width="12" height="16" viewBox="0 0 12 16" fill="none" xmlns="http://www.w3.org/2000/svg">
    <path fill-rule="evenodd" clip-rule="evenodd" d="M2.08844 6.26068V3.50732C2.08844 1.57035 3.80107 0 5.91472 0C8.02771 0 9.741 1.5717 9.741 3.50732V3.76349C9.741 4.02816 9.59087 4.26992 9.35363 4.38725V4.38725C8.89112 4.616 8.34925 4.27948 8.34925 3.76349V3.50732C8.34925 2.36801 7.28426 1.39171 5.91471 1.39171C4.54385 1.39171 3.48016 2.36667 3.48016 3.50732V6.26068H8.34925H9.741H10.5171C11.241 6.26068 11.8279 6.8848 11.8279 7.65107V14.6096C11.8279 15.3772 11.241 16 10.5171 16H1.31233C0.58843 16 0.00146484 15.3759 0.00146484 14.6096V7.65107C0.00146484 6.88348 0.588413 6.26068 1.31233 6.26068H2.08844ZM1.39322 14.6082V7.65237H10.4362V14.6082H1.39322Z" fill="white" fill-opacity="0.4" />
    <path d="M5.21884 10.2845C5.21884 9.90043 5.52797 9.58935 5.91471 9.58935C6.29884 9.58935 6.61058 9.89782 6.61058 10.2845V12.3721C6.61058 12.7562 6.30144 13.0673 5.91471 13.0673C5.53057 13.0673 5.21884 12.7588 5.21884 12.3721V10.2845Z" fill="white" fill-opacity="0.4" />
</svg>