<?xml version="1.0" encoding="utf-8"?>
<!-- Generator: Adobe Illustrator 23.1.0, SVG Export Plug-In . SVG Version: 6.00 Build 0)  -->
<svg version="1.1" id="Layer_1" xmlns="http://www.w3.org/2000/svg" xmlns:xlink="http://www.w3.org/1999/xlink" x="0px" y="0px" viewBox="0 0 36 39" style="enable-background:new 0 0 36 39;" xml:space="preserve">
    <style type="text/css">
	.st0{fill-rule:evenodd;clip-rule:evenodd;fill:#FFFFFF;fill-opacity:0.9;}
</style>
    <path class="st0" d="M15.5,30.8V8c0-4.1-3.3-7.4-7.4-7.4S0.7,3.9,0.7,8v22.8c0,4.1,3.3,7.4,7.4,7.4S15.5,34.9,15.5,30.8z M4.1,8
	c0-2.2,1.8-4,4-4c2.2,0,4,1.8,4,4v22.8c0,2.2-1.8,4-4,4c-2.2,0-4-1.8-4-4V8z" />
    <path class="st0" d="M34.9,30.8V8c0-4.1-3.3-7.4-7.4-7.4S20.1,3.9,20.1,8v22.8c0,4.1,3.3,7.4,7.4,7.4S34.9,34.9,34.9,30.8z M23.5,8
	c0-2.2,1.8-4,4-4s4,1.8,4,4v22.8c0,2.2-1.8,4-4,4s-4-1.8-4-4V8z" />
</svg>