<svg width="11" height="12" viewBox="0 0 11 12" fill="none" xmlns="http://www.w3.org/2000/svg">
    <path d="M5.88135 9.09091C5.88632 10.3139 6.66686 11.353 8.12354 11.353C9.5653 11.353 10.3707 10.3139 10.3657 9.09091V8.55398C10.3707 7.32102 9.58518 6.2919 8.12354 6.2919C6.68675 6.2919 5.88632 7.33097 5.88135 8.55398V9.09091ZM0.656206 3.2642C0.661177 4.48722 1.44172 5.51634 2.89342 5.51634C4.34015 5.51634 5.14555 4.49716 5.14058 3.2642V2.72727C5.14555 1.49432 4.36004 0.465199 2.89342 0.465199C1.47155 0.465199 0.661177 1.49432 0.656206 2.72727V3.2642ZM1.14342 11H2.44101L9.44101 0.818182H8.14342L1.14342 11ZM7.32808 8.55398C7.33305 8.06676 7.52694 7.56463 8.12354 7.56463C8.74996 7.56463 8.91402 8.06676 8.90905 8.55398V9.09091C8.91402 9.57812 8.73007 10.0703 8.12354 10.0703C7.517 10.0703 7.33305 9.56321 7.32808 9.09091V8.55398ZM2.11288 2.72727C2.11785 2.25497 2.3018 1.73793 2.89342 1.73793C3.51984 1.73793 3.68888 2.24006 3.6839 2.72727V3.2642C3.68888 3.75142 3.49996 4.24361 2.89342 4.24361C2.30677 4.24361 2.11785 3.75142 2.11288 3.2642V2.72727Z" fill="white" fill-opacity="0.9" />
</svg>