<svg width="14" height="14" viewBox="0 0 14 14" fill="none" xmlns="http://www.w3.org/2000/svg">
    <path d="M7.00024 0C6.353 0 5.8283 0.524698 5.8283 1.17195V5.82805H1.17219C0.524942 5.82805 0.000244141 6.35275 0.000244141 7C0.000244141 7.64725 0.524942 8.17195 1.17219 8.17195H5.8283V12.8281C5.8283 13.4753 6.353 14 7.00024 14C7.64749 14 8.17219 13.4753 8.17219 12.8281V8.17195H12.8283C13.4755 8.17195 14.0002 7.64725 14.0002 7C14.0002 6.35275 13.4755 5.82805 12.8283 5.82805H8.17219V1.17195C8.17219 0.524698 7.64749 0 7.00024 0Z" fill="white" fill-opacity="0.9" />
</svg>