<svg width="8" height="14" viewBox="0 0 8 14" fill="none" xmlns="http://www.w3.org/2000/svg">
    <path d="M7.2254 7.52041C7.34713 7.37758 7.41399 7.19607 7.41399 7.00841C7.41399 6.82075 7.34713 6.63923 7.2254 6.49641L1.89195 0.757744C1.75615 0.610637 1.56748 0.523498 1.36744 0.515496C1.16739 0.507495 0.972365 0.579286 0.825255 0.715077C0.678144 0.850868 0.591003 1.03953 0.583001 1.23957C0.575 1.43961 0.646794 1.63464 0.782588 1.78174L5.6467 7.00841L0.782587 12.2351C0.657937 12.3764 0.5896 12.5586 0.590582 12.7471C0.594675 12.9552 0.678703 13.1538 0.825254 13.3017C0.973882 13.4343 1.16821 13.504 1.36723 13.496C1.56624 13.4881 1.75438 13.4031 1.89195 13.2591L7.2254 7.52041Z" fill="white" fill-opacity="0.9" />
</svg>